<svg xmlns="http://www.w3.org/2000/svg" viewBox="0 0 1024 1024" role="img" aria-labelledby="title desc">
  <title id="title">Kraken Note inverse icon</title>
  <desc id="desc">White squid fountain-pen logo on a black rounded-square background.</desc>
  <rect x="40" y="40" width="944" height="944" rx="220" fill="#000000"/>
  <g transform="translate(-83.365,-51.055) scale(0.950303)">
    <g id="fins"><path d="M0 0 C-1.445 4.713 -3.325 9.168 -5.274 13.687 C-17.854 42.988 -26 72.819 -30.609 104.333 C-31.134 107.913 -31.692 111.488 -32.25 115.062 C-32.501 116.708 -32.751 118.354 -33 120 C-45.096 114.423 -53.605 98.718 -58.102 86.758 C-62.307 73.848 -61.508 61.481 -56 49 C-49.025 35.678 -16.676 -5.559 0 0 Z " fill="#FFFFFF" transform="translate(559,272)"/>
<path d="M0 0 C5.518 1.459 9.505 4.144 14.062 7.438 C14.806 7.97 15.55 8.502 16.316 9.05 C23.187 14.026 29.69 19.334 36 25 C36.373 25.331 36.373 25.331 38.262 27.008 C50.29 38.303 59.666 54.018 60.312 70.75 C59.797 88.375 51.338 102.122 40 115 C39.038 116.227 38.079 117.455 37.125 118.688 C36.424 119.451 35.722 120.214 35 121 C34.01 121 33.02 121 32 121 C31.88 120.071 31.76 119.141 31.636 118.184 C29.101 98.833 26.227 79.843 21 61 C20.74 60.048 20.48 59.096 20.212 58.115 C15.921 42.622 10.189 27.823 4 13 C3.532 11.876 3.065 10.753 2.583 9.595 C1.39 6.73 0.196 3.865 -1 1 C-0.67 0.67 -0.34 0.34 0 0 Z " fill="#FFFFFF" transform="translate(696,271)"/></g>
<g id="body"><path d="M0 0 C44.206 27.469 66.712 90.979 77.777 138.326 C92.843 205.471 92.843 205.471 84 232 C82.903 231.977 81.806 231.954 80.676 231.93 C79.221 231.911 77.767 231.893 76.312 231.875 C75.952 231.867 75.952 231.867 74.127 231.824 C69.951 231.786 66.751 232.121 63 234 C63.75 234.135 64.5 234.271 65.273 234.41 C76.66 236.805 85.306 242.41 92 252 C99.799 264.86 101.703 277.501 98.246 292.207 C94.569 304.193 87.82 313.259 79 322 C78.34 322.33 77.68 322.66 77 323 C76.851 329.059 77.2 334.477 78.562 340.375 C78.735 341.137 78.908 341.9 79.086 342.685 C81.858 354.257 86.244 365.374 91.248 376.15 C92 378 92 378 92 380 C75.5 380 59 380 42 380 C39.827 373.481 38.44 366.719 37 360 C9.28 360 -18.44 360 -47 360 C-48.32 366.27 -49.64 372.54 -51 379 C-52 380 -52 380 -54.018 380.12 C-54.461 380.119 -54.461 380.119 -56.703 380.114 C-57.704 380.113 -58.705 380.113 -59.737 380.113 C-60.825 380.108 -61.914 380.103 -63.035 380.098 C-64.144 380.096 -65.252 380.095 -66.394 380.093 C-69.95 380.088 -73.506 380.075 -77.062 380.062 C-79.467 380.057 -81.871 380.053 -84.275 380.049 C-90.184 380.038 -96.092 380.021 -102 380 C-100.827 376.416 -99.598 372.883 -98.195 369.383 C-93.979 358.715 -90.196 348.281 -88 337 C-87.745 335.826 -87.49 334.651 -87.227 333.441 C-85.956 325.475 -85.956 325.475 -88.637 321.688 C-90.177 320.225 -91.762 318.807 -93.379 317.43 C-103.649 307.91 -109.297 293.805 -110.035 280.008 C-109.87 265.884 -105.151 254.28 -95.273 244.246 C-89.001 238.532 -82.215 235.76 -74 234 C-77.834 231.434 -81.764 231.808 -86.188 231.938 C-88.796 231.999 -91.39 232.021 -94 232 C-96.001 229.999 -95.418 226.123 -95.562 223.375 C-95.604 222.602 -95.645 221.828 -95.687 221.031 C-99.165 150.752 -77.27 71.125 -29.707 17.931 C-11.068 -2.405 -11.068 -2.405 0 0 Z M-85.812 268.25 C-88.692 274.919 -88.315 281.235 -86 288 C-81.509 296.081 -75.007 301.841 -66.152 304.414 C-65.442 304.607 -64.732 304.801 -64 305 C-58.105 306.895 -58.105 306.895 -57 308 C-56.878 310.329 -56.82 312.661 -56.789 314.992 C-56.761 316.434 -56.732 317.875 -56.703 319.316 C-56.662 321.597 -56.625 323.876 -56.599 326.157 C-56.571 328.352 -56.525 330.547 -56.477 332.742 C-56.457 334.061 -56.437 335.379 -56.417 336.738 C-56 340 -56 340 -54.723 341.68 C-52.636 343.279 -51.62 343.377 -49.015 343.381 C-48.207 343.389 -47.4 343.398 -46.568 343.407 C-46.127 343.404 -46.127 343.404 -43.895 343.388 C-42.963 343.393 -42.031 343.399 -41.07 343.404 C-37.984 343.417 -34.899 343.409 -31.812 343.398 C-29.672 343.4 -27.531 343.403 -25.39 343.407 C-20.901 343.412 -16.412 343.405 -11.923 343.391 C-6.162 343.374 -0.402 343.384 5.359 343.402 C9.78 343.413 14.201 343.409 18.623 343.401 C20.747 343.399 22.871 343.402 24.996 343.409 C27.962 343.416 30.928 343.405 33.895 343.388 C34.777 343.394 35.659 343.4 36.568 343.407 C37.375 343.398 38.183 343.39 39.015 343.381 C39.716 343.38 40.417 343.379 41.14 343.378 C43.602 342.878 44.491 341.978 46 340 C46.401 336.861 46.401 336.861 46.441 333.031 C46.455 332.355 46.468 331.678 46.481 330.981 C46.522 328.82 46.544 326.661 46.562 324.5 C46.586 322.34 46.614 320.18 46.654 318.019 C46.69 316.059 46.71 314.099 46.729 312.139 C47 309 47 309 49 306 C51.504 305.262 51.504 305.262 54.562 304.688 C62.624 302.805 68.419 299.55 73.438 292.875 C77.038 286.901 78.572 280.319 77.652 273.375 C76.565 269.418 75.303 267.303 72.375 264.375 C67.844 262.529 64.667 262.648 60 264 C48.254 269.176 41.601 279.48 37 291 C33.397 302.191 33.593 313.149 33 325 C7.92 325 -17.16 325 -43 325 C-43.66 317.41 -44.32 309.82 -45 302 C-47.442 288.506 -52.798 275.523 -64 267 C-71.562 262.48 -79.503 260.417 -85.812 268.25 Z " fill="#FFFFFF" transform="translate(632,210)"/>
<path d="M0 0 C0.511 0.026 0.511 0.026 3.098 0.156 C3.607 0.172 3.607 0.172 6.188 0.25 C10.807 0.881 14.087 2.098 17.16 5.656 C16.873 6.368 16.585 7.079 16.289 7.812 C15.19 10.582 14.13 13.361 13.098 16.156 C12.756 17.074 12.414 17.992 12.062 18.938 C7.556 32.515 10.614 46 16.66 58.531 C20.476 66.097 25.403 72.429 30.771 78.938 C50.065 102.797 59.499 127.03 56.974 157.934 C54.412 179.351 41.493 198.406 28.16 214.656 C-1.093 250.69 -25.513 288.428 -46.84 329.656 C-49.241 329.874 -51.622 330.031 -54.027 330.156 C-54.701 330.223 -55.374 330.29 -56.068 330.359 C-58.07 330.438 -58.07 330.438 -61.84 329.656 C-64.136 327.315 -65.427 324.593 -66.84 321.656 C-67.253 320.849 -67.666 320.041 -68.092 319.209 C-69.434 316.56 -70.731 313.891 -72.027 311.219 C-86.974 281.009 -106.487 252.797 -127.865 226.787 C-151.323 198.146 -168.748 170.861 -165.84 132.656 C-163.288 113.414 -153.572 96.103 -141.419 81.342 C-130.003 67.411 -119.429 52.099 -119.465 33.469 C-119.466 32.636 -119.467 31.803 -119.468 30.945 C-119.632 22.31 -121.309 14.487 -126.84 7.656 C-126.34 5.719 -126.34 5.719 -124.84 3.656 C-118.281 2.199 -111.531 2.556 -104.84 2.656 C-86.993 33.356 -75.635 66.019 -75.34 101.781 C-75.321 103.061 -75.303 104.341 -75.284 105.659 C-75.359 116.983 -77.316 127.314 -84.34 136.406 C-92.048 146.779 -94.853 155.716 -93.84 168.656 C-92.003 177.371 -87.196 183.731 -81.84 190.656 C-74.487 200.51 -72.503 209.976 -71.34 222.09 C-71.219 223.27 -71.098 224.45 -70.973 225.665 C-70.586 229.474 -70.212 233.284 -69.84 237.094 C-69.577 239.713 -69.313 242.331 -69.048 244.95 C-67.453 260.859 -65.951 276.776 -64.689 292.715 C-64.588 293.981 -64.487 295.246 -64.383 296.551 C-64.342 297.086 -64.342 297.086 -64.134 299.796 C-63.859 302.47 -63.417 305.033 -62.84 307.656 C-61.52 307.656 -60.2 307.656 -58.84 307.656 C-58.786 287.314 -58.77 266.972 -58.816 246.629 C-58.834 238.829 -58.845 231.03 -58.809 223.23 C-58.782 217.285 -58.789 211.342 -58.829 205.397 C-58.836 203.287 -58.83 201.177 -58.809 199.068 C-58.782 196.18 -58.805 193.297 -58.84 190.41 C-58.82 189.583 -58.801 188.757 -58.781 187.905 C-58.841 185.565 -58.968 183.832 -59.84 181.656 C-61.735 180.002 -63.577 178.904 -65.832 177.796 C-69.508 175.709 -71.415 172.562 -72.84 168.656 C-73.753 162.472 -73.565 156.871 -69.84 151.656 C-65.501 147.306 -61.32 144.38 -55.09 144.281 C-49.915 144.411 -45.978 145.493 -41.84 148.656 C-37.214 153.719 -35.455 158.407 -35.566 165.246 C-36.116 170.089 -37.997 173.93 -41.559 177.266 C-44.412 179.418 -46.21 180.656 -49.84 180.656 C-49.839 181.314 -49.838 181.971 -49.836 182.649 C-49.812 198.937 -49.888 215.221 -50.059 231.508 C-50.081 233.758 -50.104 236.007 -50.126 238.257 C-50.184 244.08 -50.243 249.902 -50.303 255.725 C-50.365 261.706 -50.424 267.687 -50.484 273.668 C-50.601 285.331 -50.72 296.994 -50.84 308.656 C-49.19 308.326 -47.54 307.996 -45.84 307.656 C-44.354 292.957 -42.885 278.256 -41.494 263.548 C-41.304 261.544 -41.114 259.541 -40.923 257.538 C-40.86 256.874 -40.797 256.211 -40.732 255.527 C-40.605 254.19 -40.478 252.852 -40.35 251.514 C-40.028 248.119 -39.707 244.723 -39.389 241.327 C-39.134 238.6 -38.876 235.873 -38.616 233.146 C-38.375 230.626 -38.137 228.106 -37.904 225.586 C-36.285 208.791 -33.066 197.343 -21.895 184.328 C-16.02 176.689 -14.025 167.135 -14.84 157.656 C-16.431 149.189 -20.52 142.331 -25.457 135.379 C-36.897 119.186 -35.135 97.058 -32.29 78.261 C-27.872 52.671 -19.237 29.408 -6.84 6.656 C-6.668 6.325 -6.668 6.325 -5.796 4.649 C-4.144 1.763 -3.296 0.762 0 0 Z " fill="#FFFFFF" transform="translate(681.83984375,647.34375)"/></g>
<g id="arms"><path d="M0 0 C12.248 11.604 20.07 28.067 20.828 44.992 C21.265 70.782 12.629 92.184 2.4 115.512 C-5.676 134.153 -9.307 150.482 -2.508 169.934 C2.478 181.862 11.412 191.024 23.332 196.156 C38.845 201.966 56.141 201.925 71.391 195.27 C80.186 191.224 87.24 186.362 94.492 179.934 C98.084 176.934 98.084 176.934 101.492 176.934 C97.685 202.175 70.886 226.129 51.824 240.471 C44.756 245.642 37.241 249.877 29.492 253.934 C28.76 254.344 28.028 254.753 27.273 255.176 C20.392 258.104 11.113 253.339 4.629 250.734 C-5.743 246.351 -15.1 240.439 -23.508 232.934 C-24.339 232.196 -25.171 231.459 -26.027 230.699 C-42.516 215.198 -52.736 192.457 -53.629 169.871 C-54.272 135.954 -40.289 108.413 -22.88 80.305 C-14.163 66.047 -9.03 50.603 -12.633 33.934 C-15.292 24.298 -20.208 16.618 -28.508 10.934 C-33.297 8.267 -38.01 6.382 -43.508 5.934 C-44.212 5.87 -44.915 5.807 -45.641 5.742 C-57.93 5.13 -68.276 9.995 -77.582 17.637 C-79.508 18.934 -79.508 18.934 -82.258 18.621 C-83 18.394 -83.743 18.167 -84.508 17.934 C-84.117 10.306 -79.328 4.383 -73.945 -0.691 C-51.893 -18.616 -21.991 -18.12 0 0 Z " fill="#FFFFFF" transform="translate(418.5078125,398.06640625)"/>
<path d="M0 0 C4.417 4.265 9.763 9.441 10.188 15.812 C10.126 16.534 10.064 17.256 10 18 C7.824 18.73 7.824 18.73 5 19 C2.457 17.488 2.457 17.488 -0.188 15.312 C-9.408 8.195 -19.34 4.893 -31 6 C-41.782 8.169 -49.925 12.339 -56.375 21.375 C-63.794 33.439 -64.066 46.019 -60.965 59.496 C-57.572 71.817 -50.175 83.241 -43.512 94.066 C-31.338 113.936 -21.555 136.333 -21 160 C-20.95 160.949 -20.899 161.898 -20.848 162.875 C-20.092 187.055 -27.651 212.823 -44 231 C-44.801 231.893 -45.601 232.787 -46.426 233.707 C-57.507 245.43 -71.976 254.11 -88 257 C-88.636 257.13 -89.271 257.26 -89.926 257.395 C-103.806 258.937 -120.975 244.579 -131.336 236.41 C-147.471 223.304 -160.757 208.475 -171.125 190.438 C-171.504 189.783 -171.882 189.128 -172.273 188.454 C-174.378 184.646 -175.56 181.331 -176 177 C-175.34 176.67 -174.68 176.34 -174 176 C-173.322 176.568 -172.644 177.137 -171.945 177.723 C-153.12 193.341 -135.808 201.934 -111 200 C-98.041 198.227 -86.092 191.264 -78 181 C-69.278 167.943 -66.018 153.472 -69 138 C-72.129 125.081 -77.646 112.98 -83.074 100.901 C-86.59 93.05 -89.673 85.298 -92 77 C-92.316 75.942 -92.632 74.883 -92.957 73.793 C-98.022 54.296 -96.15 33.475 -86.625 15.711 C-77.711 0.839 -64.812 -8.672 -48 -13 C-30.229 -16.429 -13.734 -11.284 0 0 Z " fill="#FFFFFF" transform="translate(910,398)"/>
<path d="M0 0 C28.71 0 57.42 0 87 0 C87 1.32 87 2.64 87 4 C73.14 4.33 59.28 4.66 45 5 C44.154 9.022 43.309 13.044 42.438 17.188 C38.943 33.208 34.643 48.842 26.969 63.406 C25.779 66.591 25.837 67.814 27 71 C28.464 73.337 29.937 75.535 31.562 77.75 C36 83.905 36 83.905 36 85 C34.686 85.098 33.373 85.196 32.02 85.297 C30.284 85.447 28.548 85.598 26.812 85.75 C25.948 85.812 25.084 85.874 24.193 85.938 C18.957 86.419 15.782 87.049 12 91 C10.852 92.381 9.749 93.801 8.688 95.25 C-0.874 107.445 -12.342 118.1 -25 127 C-25.28 127.199 -25.28 127.199 -26.695 128.208 C-50.814 145.29 -78.147 156.991 -105.74 167.237 C-124.511 174.249 -142.885 182.582 -158 196 C-158.757 196.663 -159.513 197.325 -160.293 198.008 C-173.746 210.558 -181.798 227.623 -183 246 C-183.161 264.823 -177.437 281.009 -164.449 294.746 C-151.446 306.713 -136.156 310.391 -119 310.062 C-116.75 310.028 -114.5 309.998 -112.25 309.973 C-111.265 309.955 -110.28 309.937 -109.266 309.918 C-107 310 -107 310 -106 311 C-106 314.308 -106.18 316.899 -108.207 319.621 C-118.674 329.426 -133.777 331.677 -147.523 331.309 C-168.209 330.23 -185.371 319.553 -199.43 304.879 C-203.275 300.572 -206.213 296.043 -209 291 C-209.596 289.942 -210.191 288.883 -210.805 287.793 C-224.535 262.013 -226.235 232.629 -217.812 204.812 C-209.558 179.331 -192.595 158.458 -171 143 C-169.993 142.277 -168.986 141.554 -167.949 140.809 C-150.032 128.693 -129.845 119.841 -110.292 110.72 C-85.185 99.003 -62.313 86.114 -42 67 C-41.361 66.425 -40.721 65.85 -40.062 65.258 C-22.861 49.131 -11.244 27.619 -2.787 5.897 C-1.954 3.889 -0.972 1.945 0 0 Z " fill="#FFFFFF" transform="translate(540,565)"/>
<path d="M0 0 C28.71 0 57.42 0 87 0 C88.65 3.96 90.3 7.92 92 12 C93.241 14.651 94.489 17.269 95.812 19.875 C96.153 20.546 96.494 21.218 96.844 21.91 C97.886 23.945 98.94 25.974 100 28 C100.318 28.612 100.637 29.223 100.965 29.854 C125.152 75.769 171.203 99.725 216.797 119.925 C253.654 136.288 287.094 159.985 302.723 198.473 C312.797 226.291 312.401 255.976 300.395 283.109 C290.742 303.117 276.249 319.264 255 327 C237.53 332.781 220.525 333.049 203.562 325.188 C198.844 322.689 195.743 320.604 193 316 C192.625 313.188 192.625 313.188 193 311 C194 310 194 310 196.17 309.95 C197.117 309.981 198.064 310.011 199.039 310.043 C220.484 310.541 237.362 308.071 253.492 292.699 C265.493 279.782 270.631 263.113 270.309 245.738 C268.997 229.847 262.673 214.89 252 203 C251.295 202.202 250.59 201.404 249.863 200.582 C245.262 195.677 240.373 191.614 234.812 187.875 C234.262 187.504 233.712 187.133 233.145 186.75 C221.085 178.942 208.269 173.251 194.916 168.074 C190.475 166.349 186.046 164.589 181.617 162.832 C180.762 162.493 179.906 162.154 179.025 161.805 C169.871 158.171 160.846 154.335 152 150 C151.096 149.558 150.192 149.115 149.261 148.66 C121.731 135.044 91.14 116.335 74 90 C74 89.34 74 88.68 74 88 C73.381 87.876 72.763 87.753 72.125 87.625 C70 87 70 87 68 85 C65.441 84.534 62.953 84.165 60.375 83.875 C60.022 83.832 60.022 83.832 58.234 83.613 C56.49 83.401 54.745 83.2 53 83 C54.727 79.201 57.115 76.406 59.855 73.293 C61.551 69.895 60.845 67.64 60 64 C59.216 62.033 58.355 60.096 57.438 58.188 C54.364 51.406 52.081 44.418 49.875 37.312 C49.551 36.287 49.226 35.262 48.892 34.206 C45.933 24.508 44.115 15.046 42 5 C28.14 4.67 14.28 4.34 0 4 C0 2.68 0 1.36 0 0 Z " fill="#FFFFFF" transform="translate(627,565)"/></g>
  </g>
</svg>
